<svg width="76" height="100" viewBox="0 0 76 100" fill="none" xmlns="http://www.w3.org/2000/svg">
<path d="M72.8602 0.309398C71.1141 -0.370094 69.1283 0.0922109 67.8619 1.47424L1.19531 74.2012C-0.0228518 75.5299 -0.34043 77.4533 0.38496 79.103C1.11094 80.753 2.74336 81.8182 4.54551 81.8182H7.57578H62.1213C64.6277 81.8182 66.6668 83.8571 66.6668 86.3637C66.6668 88.8701 64.6277 90.9092 62.1213 90.9092H4.54551C2.03555 90.9092 0 92.944 0 95.4547C0 97.9647 2.03555 100 4.54551 100H62.1213C69.6406 100 75.7576 93.8826 75.7576 86.3639V4.54553C75.7576 2.67131 74.607 0.988891 72.8602 0.309398Z" fill="white"/>
</svg>
