<svg width="388" height="388" viewBox="0 0 388 388" fill="none" xmlns="http://www.w3.org/2000/svg">
<g clip-path="url(#clip0_215_1567)">
<path d="M87.9994 0C88.9376 -0.00396842 89.5327 0.0040887 90.4994 0C93.0982 -0.00939506 95.9005 -0.000333965 98.4994 0C101.304 -0.00125077 104.194 0.00869304 106.999 0C113.131 -0.0173024 119.368 0.0038327 125.499 0C129.33 -0.00247005 133.168 0.0054698 136.999 0C147.613 -0.0148262 158.386 0.00220317 168.999 0C169.678 -0.000142157 170.3 0.000146449 170.999 0C172.376 -0.000277549 173.623 0.000273705 174.999 0C175.683 -0.000138521 176.296 0.000142723 176.999 0C177.683 -0.000136822 178.295 0.000140965 178.999 0C190.078 -0.00268275 201.312 -0.345976 212.39 -0.374317C223.773 -0.403202 235.156 -0.41785 246.538 -0.418079C252.926 -0.418521 259.313 -0.424921 265.7 -0.446874C271.14 -0.465485 276.58 -0.470947 282.02 -0.459569C284.793 -0.45415 287.566 -0.454726 290.339 -0.472005C293.352 -0.490601 296.365 -0.47951 299.379 -0.465781C300.679 -0.480786 300.679 -0.480786 302.005 -0.496094C309.976 -0.413451 317.173 1.98403 323.017 7.56043C330.633 16.3656 331.282 25.6392 331.176 36.7899C331.155 39.4988 331.163 42.2077 331.167 44.9167C331.172 48.3442 331.168 51.7708 331.125 55.1981C331.091 57.9867 331.091 60.7736 331.113 63.5624C331.115 64.6152 331.106 65.6681 331.083 66.7207C330.939 73.9185 332.112 77.9108 337.08 83.2058C337.629 83.7567 338.177 84.3075 338.742 84.8751C339.433 85.702 340.113 86.5388 340.773 87.3912C341.322 88.0926 341.871 88.794 342.436 89.5167C354.663 105.473 364.194 123.409 370.57 142.469C370.782 143.1 370.993 143.732 371.211 144.383C373.481 151.281 375.365 158.23 376.822 165.345C376.937 165.902 377.051 166.458 377.169 167.031C379.408 178.702 379.947 190.243 379.901 202.099C379.899 203.203 379.899 203.203 379.897 204.329C379.863 214.94 379.549 225.259 377.391 235.68C377.269 236.323 377.147 236.967 377.021 237.629C370.792 270.293 356 300 333.503 325.655C332.042 327.244 330.628 328.863 329.222 330.501C324.661 335.709 319.771 340.268 314.365 344.595C312.989 345.701 311.627 346.827 310.286 347.975C286.957 367.834 257.109 379.908 227.344 385.727C226.701 385.861 226.057 385.996 225.395 386.135C205.122 390.278 180.882 389.917 160.656 385.727C160.013 385.605 159.369 385.483 158.706 385.357C133.859 380.619 109.257 371.023 88.6639 356.172C88.1622 355.815 87.6604 355.458 87.1435 355.09C75 345 64 335 51.6554 322.612C50.6027 321.291 49.5267 319.989 48.4229 318.711C25.5 290.5 11 249 8.18187 211.587C8.17652 210.904 8.17117 210.222 8.16566 209.519C7.99222 180.906 9 181 10.9994 168.5C11.15 167.755 11.3443 166.768 11.4994 166C17.4741 137.272 29.1563 111.275 46.9994 88C47.3337 87.559 47.6549 86.9544 47.9994 86.5C49.3217 84.8763 49.8067 84.2154 51.4994 82.5C56.8927 76.7598 57.6806 72.6619 57.4994 65C57.4998 63.9275 57.4927 63.0725 57.4994 62C57.5094 59.197 57.5385 56.8027 57.4994 54C57.4514 50.059 56.999 46.4413 56.9994 42.5C56.9995 40.4086 56.7515 37.6132 56.7235 35.5221C56.6468 24.9479 58.1059 15.5813 65.4994 7.5C72.3984 1.37919 79.0616 -0.0186535 87.9994 0Z" fill="#D3DBFA"/>
<path d="M153.409 63.5582C154.118 63.5604 154.826 63.5626 155.556 63.5648C156.302 63.5642 157.049 63.5635 157.818 63.5629C160.339 63.5616 162.861 63.5658 165.382 63.5699C167.182 63.5702 168.981 63.57 170.781 63.5696C175.173 63.5694 179.565 63.5727 183.957 63.5775C189.066 63.5829 194.175 63.5841 199.284 63.5849C208.395 63.5866 217.506 63.5916 226.618 63.5988C235.471 63.6058 244.324 63.6111 253.177 63.6143C253.722 63.6145 254.267 63.6147 254.829 63.6149C257.565 63.6159 260.3 63.6169 263.036 63.6178C285.745 63.6257 308.455 63.6391 331.164 63.656C331.184 64.5354 331.204 65.4148 331.225 66.3209C331.268 67.489 331.312 68.657 331.357 69.825C331.373 70.6919 331.373 70.6919 331.39 71.5764C331.653 77.6453 334.596 80.635 338.742 84.8747C352.763 101.933 363.567 121.535 370.57 142.468C370.888 143.416 370.888 143.416 371.212 144.382C373.481 151.281 375.365 158.229 376.822 165.345C376.937 165.901 377.051 166.458 377.169 167.031C379.408 178.702 379.947 190.243 379.901 202.099C379.899 203.203 379.899 203.203 379.897 204.329C379.863 214.94 379.549 225.258 377.391 235.679C377.269 236.323 377.147 236.966 377.021 237.629C370.792 270.292 356.078 301.139 333.503 325.655C332.042 327.244 330.628 328.863 329.222 330.501C324.661 335.709 319.771 340.268 314.365 344.594C312.989 345.701 311.627 346.826 310.286 347.975C282.741 371.424 246.296 384.5 210.672 388C209.82 388.098 209.82 388.098 208.951 388.197C200.894 389.066 200.894 389.066 197.345 386.685C192.06 381.152 190.727 375.78 190.667 368.317C191.036 365.513 192.096 363.292 193.242 360.718C194.299 360.712 194.299 360.712 195.378 360.705C202.044 360.661 208.711 360.606 215.377 360.54C218.804 360.506 222.231 360.476 225.658 360.456C228.969 360.436 232.281 360.405 235.593 360.367C236.851 360.355 238.11 360.346 239.369 360.341C248.841 360.302 257.266 360.017 264.477 353.14C269.187 347.067 269.56 341.709 269.023 334.195C268.145 329.574 265.704 325.929 262.203 322.828C256.985 319.322 252.896 318.165 246.642 318.198C245.459 318.197 244.276 318.197 243.093 318.196C242.468 318.197 241.844 318.198 241.2 318.199C237.886 318.202 234.572 318.183 231.259 318.167C227.044 318.149 222.83 318.137 218.616 318.148C215.207 318.157 211.799 318.144 208.39 318.116C207.092 318.11 205.795 318.111 204.497 318.121C202.681 318.134 200.867 318.119 199.05 318.097C198.516 318.107 197.982 318.118 197.431 318.129C195.324 318.08 193.706 317.917 192.068 316.526C189.7 313.744 188.505 311.89 188.79 308.287C188.823 307.73 188.856 307.172 188.891 306.597C189.725 303.694 191.049 301.432 193.242 299.336C195.583 298.809 197.132 298.651 199.465 298.724C200.082 298.722 200.698 298.72 201.334 298.718C202.669 298.717 204.005 298.728 205.34 298.75C207.46 298.785 209.578 298.789 211.698 298.784C215.439 298.781 219.18 298.806 222.921 298.841C228.894 298.896 234.867 298.927 240.841 298.922C242.919 298.927 244.996 298.956 247.074 298.987C256.85 299.233 256.85 299.233 265.234 294.789C269.791 289.79 269.57 284.372 269.526 277.92C269.532 276.833 269.54 275.746 269.55 274.658C269.57 271.719 269.567 268.781 269.557 265.842C269.552 263.382 269.558 260.923 269.565 258.463C269.58 252.659 269.576 246.854 269.559 241.049C269.542 235.073 269.555 229.098 269.584 223.122C269.608 217.979 269.614 212.836 269.605 207.693C269.6 204.626 269.602 201.561 269.62 198.494C269.636 195.61 269.63 192.726 269.607 189.841C269.602 188.787 269.605 187.733 269.616 186.679C269.682 180.066 269.053 175.489 264.477 170.508C262.691 169.051 261.449 168.36 259.184 167.985C257.517 167.706 256.151 167.452 254.625 166.718C253.7 165.191 253.234 163.801 252.784 162.077C252.423 160.489 252.423 160.489 250.836 159.14C250.686 157.055 250.626 155.04 250.629 152.954C250.613 151.667 250.598 150.38 250.581 149.093C250.564 147.077 250.552 145.061 250.547 143.044C250.505 131.731 249.624 120.91 243.968 110.83C243.678 110.298 243.387 109.767 243.087 109.22C240.063 103.924 236.314 99.649 231.891 95.4841C231.292 94.9175 230.693 94.3509 230.076 93.7672C218.812 83.9787 203.637 79.9694 188.967 80.9199C181.246 81.6362 174.689 83.7318 167.903 87.4323C161.85 90.7016 161.85 90.7016 158.004 90.132C153.567 88.6355 149.895 85.8801 147.652 81.7339C145.451 75.8886 145.712 70.2331 147.773 64.4138C149.241 62.9465 151.456 63.5628 153.409 63.5582Z" fill="#DEEDFE"/>
<path d="M227.872 91.1707C230.639 93.4646 233.168 95.947 235.68 98.5158C236.175 98.9866 236.67 99.4575 237.181 99.9426C240.276 103.102 242.407 106.796 244.537 110.641C244.816 111.13 245.096 111.619 245.384 112.123C250.863 122.482 251.256 133.393 251.215 144.837C251.206 147.444 251.216 150.051 251.239 152.658C251.23 153.243 251.222 153.828 251.213 154.431C251.25 158.43 252.229 160.385 254.625 163.688C254.625 164.688 254.625 165.688 254.625 166.719C255.5 166.75 256.376 166.781 257.277 166.814C261.22 167.317 264.039 169.164 266.75 172.024C270.545 177.016 270.222 181.979 270.198 188.048C270.204 189.135 270.212 190.223 270.221 191.31C270.241 194.252 270.242 197.194 270.238 200.136C270.237 202.597 270.244 205.059 270.252 207.52C270.268 213.329 270.269 219.139 270.26 224.948C270.251 230.93 270.269 236.911 270.302 242.892C270.328 248.038 270.337 253.185 270.332 258.331C270.33 261.4 270.334 264.468 270.355 267.537C270.374 270.425 270.371 273.312 270.351 276.199C270.348 277.255 270.352 278.31 270.364 279.366C270.426 284.99 270.302 289.639 266.681 294.163C260.493 300.084 253.25 299.886 245.16 299.838C243.909 299.845 242.659 299.853 241.408 299.862C238.031 299.883 234.654 299.879 231.276 299.87C228.45 299.865 225.623 299.871 222.796 299.878C216.125 299.893 209.454 299.888 202.783 299.872C195.916 299.855 189.048 299.868 182.18 299.897C176.269 299.92 170.358 299.926 164.446 299.918C160.922 299.913 157.398 299.915 153.874 299.933C150.559 299.949 147.246 299.943 143.931 299.92C142.72 299.915 141.508 299.918 140.297 299.929C133.27 299.989 127.449 299.703 122.008 294.789C117.97 290.786 117.766 286.47 117.697 280.979C117.703 279.959 117.71 278.94 117.717 277.921C117.71 276.833 117.702 275.746 117.693 274.659C117.672 271.72 117.676 268.781 117.685 265.842C117.69 263.383 117.684 260.923 117.677 258.464C117.662 252.659 117.667 246.854 117.683 241.049C117.7 235.074 117.687 229.098 117.658 223.122C117.635 217.979 117.629 212.836 117.637 207.693C117.642 204.627 117.64 201.561 117.622 198.495C117.606 195.61 117.612 192.726 117.635 189.842C117.64 188.788 117.637 187.733 117.626 186.679C117.561 180.06 118.191 175.493 122.766 170.508C126.219 167.505 128.952 167.024 133.375 166.719C133.453 166.031 133.531 165.343 133.612 164.635C134.133 162.172 134.133 162.172 135.285 160.898C136.932 158.317 136.711 155.771 136.688 152.806C136.701 151.524 136.714 150.242 136.728 148.961C136.735 146.961 136.738 144.961 136.737 142.961C136.753 131.662 137.625 120.9 143.274 110.83C143.564 110.299 143.854 109.768 144.153 109.22C147.176 103.921 150.983 99.6998 155.352 95.4845C155.886 94.9267 156.42 94.3689 156.971 93.7942C175.381 75.6646 207.932 75.7996 227.872 91.1707Z" fill="#275789"/>
<path d="M88.0444 -0.207688C88.9826 -0.211657 89.9209 -0.215625 90.8875 -0.219714C93.4864 -0.229109 96.0851 -0.231721 98.6839 -0.231387C101.489 -0.232637 104.294 -0.242543 107.099 -0.251236C113.231 -0.268538 119.362 -0.274553 125.494 -0.278386C129.325 -0.280856 133.156 -0.2858 136.987 -0.291269C147.6 -0.306096 158.213 -0.318527 168.827 -0.320731C169.506 -0.320873 170.185 -0.321015 170.884 -0.321161C172.26 -0.321439 173.637 -0.321714 175.013 -0.321988C175.696 -0.322127 176.379 -0.322265 177.083 -0.322408C177.767 -0.322545 178.451 -0.322682 179.156 -0.322823C190.234 -0.325505 201.313 -0.345976 212.391 -0.374317C223.774 -0.403202 235.156 -0.41785 246.539 -0.418079C252.926 -0.418521 259.313 -0.424921 265.701 -0.446874C271.141 -0.465485 276.581 -0.470947 282.021 -0.459569C284.794 -0.45415 287.567 -0.454726 290.34 -0.472005C293.353 -0.490601 296.366 -0.47951 299.379 -0.465781C300.679 -0.480786 300.679 -0.480786 302.006 -0.496094C309.977 -0.413451 317.174 1.98403 323.018 7.56043C330.027 15.6651 331.307 24.432 331.259 34.7647C331.262 35.4114 331.265 36.0581 331.268 36.7244C331.267 37.6504 331.267 37.6504 331.265 38.5952C331.264 39.1519 331.263 39.7086 331.263 40.2822C331.164 41.6798 331.164 41.6798 330.407 43.1954C240.379 43.1954 150.35 43.1954 57.5942 43.1954C54.6667 37.3405 56.4585 25.0182 58.352 18.9454C61.895 9.9208 67.2369 4.62682 76.0839 0.711108C80.0717 -0.327891 83.9396 -0.216255 88.0444 -0.207688Z" fill="#3B58A0"/>
<path d="M56.0782 76.5391C56.5784 76.5391 57.0785 76.5391 57.5939 76.5391C57.5939 159.815 57.5939 243.091 57.5939 328.891C50.3931 321.69 44.1945 313.942 38.6485 305.398C38.3324 304.918 38.0163 304.437 37.6906 303.942C17.8202 273.499 7.95426 238.85 8.09923 202.62C8.10086 201.885 8.1025 201.149 8.10418 200.391C8.14286 189.533 8.40608 178.903 10.6095 168.234C10.76 167.489 10.9106 166.744 11.0657 165.977C17.3271 135.871 30.3097 109.004 49.2579 84.875C49.5997 84.4364 49.9415 83.9978 50.2936 83.5459C54.3133 78.4069 54.3133 78.4069 56.0782 76.5391Z" fill="#003266"/>
<path d="M330.406 76.5391C330.906 76.5391 331.407 76.5391 331.922 76.5391C334.015 78.7895 335.876 81.2319 337.775 83.6469C338.704 84.8266 339.644 85.9981 340.583 87.1692C353.672 103.749 363.866 122.429 370.57 142.469C370.782 143.1 370.994 143.732 371.212 144.383C373.481 151.281 375.365 158.229 376.822 165.345C376.937 165.902 377.051 166.458 377.169 167.031C379.408 178.702 379.947 190.243 379.901 202.099C379.899 203.203 379.899 203.203 379.897 204.329C379.863 214.94 379.549 225.259 377.391 235.68C377.269 236.323 377.147 236.966 377.021 237.629C370.573 271.443 354.899 304.398 330.406 328.891C330.406 245.615 330.406 162.339 330.406 76.5391Z" fill="#003266"/>
<path d="M133.401 166.633C134.288 166.633 134.288 166.633 135.193 166.633C135.824 166.637 136.455 166.641 137.105 166.645C137.757 166.646 138.408 166.647 139.08 166.648C141.157 166.652 143.234 166.662 145.311 166.672C146.721 166.675 148.131 166.679 149.541 166.682C152.993 166.69 156.446 166.703 159.899 166.719C159.881 167.633 159.863 168.548 159.845 169.49C159.831 170.713 159.817 171.937 159.804 173.16C159.791 173.76 159.778 174.36 159.765 174.978C159.715 181.115 160.641 186.225 164.57 191.102C168.302 194.811 173.047 196.61 178.086 197.789C176.792 200.48 175.25 202.938 173.631 205.441C172.009 208.194 171.88 210.571 171.834 213.703C171.815 214.5 171.795 215.298 171.775 216.119C171.848 218.246 171.848 218.246 173.033 219.65C175.034 221.033 176.482 220.861 178.844 220.524C180.704 219.551 180.704 219.551 181.875 217.492C182.149 216.253 182.382 215.004 182.586 213.751C183.35 209.191 185.382 207.497 188.98 204.752C192.07 203.354 194.611 203.329 197.854 204.349C201.203 205.793 203.301 207.416 204.897 210.728C206.033 214.251 205.756 217.24 204.42 220.713C202.218 224.174 200.238 226.146 196.274 227.344C195.367 227.438 194.461 227.532 193.527 227.628C191.027 227.873 191.027 227.873 189.696 229.176C188.124 232.251 188.307 235.26 188.317 238.664C188.295 239.341 188.274 240.019 188.251 240.717C188.241 244.239 188.264 245.764 190.566 248.566C191.199 249.065 191.832 249.564 192.485 250.078C193.685 252.479 193.561 254.258 193.242 256.899C191.016 258.651 191.016 258.651 188.695 259.93C187.433 262.456 187.622 264.989 188.459 267.65C189.767 269.457 191.288 270.268 193.242 271.297C192.992 271.797 192.742 272.297 192.485 272.813C191.984 272.813 191.484 272.813 190.969 272.813C190.766 273.235 190.563 273.657 190.353 274.092C189.453 275.844 189.453 275.844 188.281 277.546C186.297 281.306 186.714 285.345 187.18 289.485C187.934 291.654 188.816 292.891 190.211 294.789C191.226 296.302 192.237 297.817 193.242 299.336C185.074 299.442 176.905 299.522 168.736 299.572C164.942 299.595 161.148 299.627 157.355 299.679C153.689 299.729 150.024 299.756 146.358 299.768C144.964 299.776 143.57 299.792 142.176 299.817C129.097 300.039 129.097 300.039 123.52 296.36C118.042 290.668 117.664 285.656 117.717 277.921C117.71 276.833 117.702 275.746 117.693 274.659C117.672 271.72 117.676 268.781 117.685 265.842C117.69 263.383 117.684 260.923 117.677 258.464C117.662 252.659 117.667 246.854 117.683 241.05C117.7 235.074 117.687 229.098 117.658 223.122C117.635 217.979 117.629 212.836 117.637 207.693C117.642 204.627 117.64 201.561 117.622 198.495C117.606 195.61 117.612 192.726 117.635 189.842C117.64 188.788 117.637 187.733 117.626 186.679C117.561 180.09 118.161 175.449 122.766 170.508C125.977 167.68 129.173 166.619 133.401 166.633Z" fill="#003266"/>
<path d="M140.393 317.412C141.368 317.407 142.343 317.401 143.348 317.396C144.427 317.393 145.507 317.391 146.586 317.389C147.724 317.385 148.862 317.38 150 317.374C153.735 317.358 157.471 317.351 161.207 317.343C162.495 317.34 163.784 317.337 165.072 317.334C171.126 317.319 177.18 317.308 183.234 317.302C190.211 317.295 197.189 317.275 204.166 317.244C209.566 317.221 214.966 317.21 220.365 317.208C223.587 317.206 226.809 317.199 230.031 317.18C233.065 317.162 236.099 317.159 239.133 317.167C240.242 317.167 241.351 317.162 242.46 317.152C251.323 317.073 258.128 318.247 264.711 324.445C269.564 329.802 270.053 335.172 269.995 342.164C269.71 345.694 268.783 348.012 266.75 350.867C266.203 351.664 265.656 352.462 265.093 353.283C260.544 357.832 255.456 360.049 249.061 360.073C248.326 360.077 248.326 360.077 247.577 360.081C245.933 360.089 244.289 360.092 242.645 360.095C241.467 360.1 240.29 360.105 239.112 360.11C235.242 360.126 231.371 360.134 227.501 360.142C226.168 360.145 224.835 360.148 223.502 360.151C217.238 360.165 210.975 360.176 204.711 360.183C197.485 360.19 190.259 360.21 183.033 360.241C177.445 360.263 171.857 360.275 166.27 360.277C162.934 360.279 159.598 360.286 156.262 360.305C153.121 360.322 149.981 360.326 146.84 360.318C145.69 360.317 144.54 360.322 143.391 360.333C134.798 360.406 129.123 359.209 122.766 353.141C118.124 346.952 117.684 341.795 118.219 334.195C119.113 329.182 122.062 325.426 125.797 322.07C130.633 318.776 134.551 317.434 140.393 317.412Z" fill="#275789"/>
<path d="M56.8359 41.6797C57.086 42.1798 57.3361 42.68 57.5938 43.1953C147.622 43.1953 237.65 43.1953 330.406 43.1953C330.656 42.6952 330.906 42.195 331.164 41.6797C331.164 48.932 331.164 56.1842 331.164 63.6562C240.886 63.6562 150.608 63.6562 57.5938 63.6562C57.3437 56.404 57.0936 49.1517 56.8359 41.6797Z" fill="#D2DBFB"/>
<path d="M216.071 107.041C224.18 112.979 229.192 120.898 230.847 130.859C231.374 135.499 231.414 140.14 231.413 144.804C231.417 146.556 231.445 148.305 231.473 150.056C231.477 151.18 231.48 152.304 231.482 153.428C231.493 153.946 231.504 154.464 231.515 154.997C231.48 158.678 230.463 160.212 228.101 162.93C227.851 164.18 227.601 165.431 227.344 166.719C205.337 166.719 183.33 166.719 160.656 166.719C160.156 164.969 159.656 163.218 159.14 161.414C158.741 161.057 158.342 160.699 157.931 160.33C156.098 158.282 156.512 155.612 156.512 152.993C156.506 152.382 156.5 151.771 156.494 151.142C156.486 149.844 156.484 148.547 156.487 147.249C156.488 145.299 156.457 143.352 156.423 141.402C156.332 129.041 159.254 119.22 168.021 110.034C181.91 97.3574 200.668 96.8116 216.071 107.041Z" fill="#DEEDFD"/>
<path d="M227.871 91.1707C230.639 93.4646 233.168 95.947 235.68 98.5158C236.175 98.9866 236.67 99.4575 237.181 99.9426C240.276 103.102 242.407 106.796 244.537 110.641C244.816 111.13 245.096 111.619 245.384 112.123C250.863 122.482 251.256 133.393 251.215 144.837C251.206 147.444 251.216 150.051 251.239 152.658C251.23 153.243 251.221 153.828 251.213 154.431C251.25 158.43 252.228 160.385 254.625 163.688C254.625 164.688 254.625 165.688 254.625 166.719C245.622 166.719 236.619 166.719 227.344 166.719C228.102 161.414 228.102 161.414 229.268 160.294C231.085 158.401 230.683 156.058 230.65 153.576C230.651 153.027 230.651 152.478 230.651 151.912C230.65 150.748 230.642 149.583 230.63 148.419C230.612 146.664 230.614 144.91 230.619 143.156C230.597 130.73 228.893 120.069 219.97 110.667C211.153 102.761 201.726 100.467 190.095 100.582C180.998 101.229 172.736 105.748 166.482 112.298C160.511 119.471 157.397 127.758 157.37 137.028C157.363 137.962 157.363 137.962 157.355 138.915C157.348 140.223 157.344 141.531 157.344 142.839C157.341 144.837 157.313 146.833 157.285 148.83C157.28 150.106 157.277 151.382 157.276 152.658C157.265 153.252 157.254 153.845 157.243 154.457C157.275 158.384 158.137 160.019 160.656 162.93C160.656 164.18 160.656 165.431 160.656 166.719C151.653 166.719 142.651 166.719 133.375 166.719C134.133 162.172 134.133 162.172 135.299 160.768C136.99 158.283 136.71 155.708 136.687 152.806C136.701 151.524 136.714 150.242 136.727 148.961C136.735 146.961 136.738 144.961 136.736 142.961C136.753 131.662 137.625 120.9 143.274 110.83C143.564 110.299 143.854 109.768 144.153 109.22C147.175 103.921 150.983 99.6998 155.352 95.4845C155.886 94.9267 156.42 94.3689 156.971 93.7942C175.381 75.6646 207.931 75.7996 227.871 91.1707Z" fill="#FEB333"/>
<path d="M86.216 -0.172974C87.3146 -0.173306 87.3146 -0.173306 88.4354 -0.173645C90.8465 -0.172593 93.2573 -0.160816 95.6683 -0.148923C97.3439 -0.146095 99.0194 -0.143938 100.695 -0.142424C105.098 -0.136647 109.5 -0.121765 113.903 -0.104982C118.399 -0.0894581 122.894 -0.0825512 127.39 -0.0749175C136.205 -0.0586792 145.021 -0.0328219 153.836 -0.000912398C153.466 0.692664 153.096 1.38624 152.714 2.10083C151.377 4.94035 151.275 6.7451 151.563 9.85065C152.342 11.9087 153.027 12.8306 154.594 14.3975C153.875 14.8508 153.156 15.3041 152.415 15.7711C149.941 17.2891 149.941 17.2891 148.532 19.7022C148.64 22.6723 148.818 24.425 150.71 26.7593C152.392 28.1312 152.392 28.1312 154.594 29.5538C154.094 30.2102 153.594 30.8667 153.079 31.543C151.419 34.3438 151.1 35.4701 151.563 38.6475C152.313 40.148 153.063 41.6485 153.836 43.1944C122.076 43.1944 90.3165 43.1944 57.5942 43.1944C54.6667 37.3395 56.4585 25.0173 58.352 18.9444C61.6057 10.6567 66.2681 5.45271 74.266 1.51471C78.3085 -0.173369 81.9122 -0.207202 86.216 -0.172974Z" fill="#2A428C"/>
<path d="M146.545 317.91C147.895 317.918 149.244 317.923 150.594 317.927C154.126 317.941 157.658 317.978 161.189 318.02C164.801 318.059 168.413 318.076 172.025 318.095C179.098 318.136 186.17 318.201 193.243 318.281C192.865 318.981 192.487 319.681 192.097 320.403C190.783 323.228 190.875 324.425 191.727 327.374C192.477 328.5 192.477 328.5 193.243 329.648C191.245 330.721 191.245 330.721 189.246 331.794C187.707 332.715 187.707 332.715 186.422 334.952C186.166 338.132 186.094 340.193 187.275 343.146C189.023 345.186 190.787 346.041 193.243 347.077C192.868 347.828 192.868 347.828 192.485 348.593C191.372 351.933 191.003 355.328 192.497 358.631C192.866 359.289 192.866 359.289 193.243 359.96C185.542 360.031 177.841 360.084 170.14 360.117C166.563 360.133 162.987 360.154 159.411 360.189C155.957 360.222 152.503 360.24 149.048 360.248C147.733 360.253 146.418 360.264 145.104 360.281C143.255 360.303 141.408 360.306 139.559 360.304C138.752 360.321 138.752 360.321 137.929 360.337C131.771 360.287 127.095 357.272 122.766 353.14C118.124 346.951 117.684 341.794 118.219 334.195C119.207 328.656 122.714 324.595 126.97 321.109C132.912 317.069 139.673 317.804 146.545 317.91Z" fill="#003266"/>
<path d="M15.9138 147.016C22.3756 149.216 27.1329 154.646 30.8776 160.18C34.7226 168.241 34.4478 176.204 34.4298 184.951C34.4333 186.432 34.4373 187.913 34.4419 189.395C34.4486 192.49 34.4468 195.585 34.4393 198.68C34.4306 202.627 34.4459 206.574 34.468 210.522C34.482 213.578 34.4817 216.635 34.4774 219.691C34.4773 221.146 34.4818 222.6 34.4912 224.055C34.5535 235.216 33.7108 243.828 25.7653 252.352C22.9465 255.107 20.2752 257.518 16.6716 259.172C13.9963 251.738 12.2275 244.299 10.7985 236.532C10.6391 235.668 10.4797 234.805 10.3154 233.914C8.9877 226.462 8.22146 219.156 8.18169 211.587C8.17635 210.904 8.171 210.222 8.16548 209.519C8.03557 188.086 9.06532 167.561 15.9138 147.016Z" fill="#275789"/>
<path d="M372.086 147.016C376.282 162.241 379.735 177.25 379.818 193.112C379.826 194.139 379.826 194.139 379.834 195.186C379.847 197.38 379.852 199.574 379.854 201.768C379.854 202.517 379.855 203.266 379.855 204.038C379.844 214.745 379.607 225.167 377.391 235.68C377.245 236.4 377.098 237.12 376.948 237.861C375.501 244.897 373.995 251.732 371.328 258.414C365.062 256.652 360.961 251.226 357.341 246.153C354.513 240.984 353.56 236.052 353.592 230.211C353.587 229.549 353.582 228.888 353.577 228.207C353.563 226.041 353.566 223.876 353.57 221.71C353.566 220.192 353.562 218.674 353.558 217.156C353.551 213.982 353.553 210.808 353.561 207.634C353.569 203.582 353.554 199.53 353.532 195.478C353.518 192.345 353.518 189.212 353.522 186.078C353.523 184.585 353.518 183.092 353.509 181.598C353.448 170.381 354.364 162.405 362.234 153.836C369.315 147.016 369.315 147.016 372.086 147.016Z" fill="#275789"/>
<path d="M56.8359 41.6797C57.086 42.1798 57.3361 42.68 57.5938 43.1953C147.622 43.1953 237.65 43.1953 330.406 43.1953C330.656 42.6952 330.906 42.195 331.164 41.6797C331.164 42.4299 331.164 43.1802 331.164 43.9531C272.896 43.9531 214.628 43.9531 154.594 43.9531C154.594 48.9547 154.594 53.9563 154.594 59.1094C152.32 62.8984 152.32 62.8984 150.805 63.6562C149.566 63.7266 148.324 63.7486 147.084 63.7474C146.297 63.7484 145.511 63.7495 144.701 63.7505C143.402 63.7465 143.402 63.7465 142.076 63.7423C140.712 63.7424 140.712 63.7424 139.321 63.7426C136.823 63.7422 134.326 63.7384 131.829 63.7331C129.221 63.7284 126.612 63.7279 124.004 63.727C119.063 63.7246 114.122 63.7184 109.181 63.7108C103.557 63.7024 97.9322 63.6982 92.3078 63.6944C80.7364 63.6865 69.1651 63.6726 57.5938 63.6562C57.3437 56.404 57.0936 49.1517 56.8359 41.6797Z" fill="#B9C3F3"/>
<path d="M255.116 166.339C259.83 167.043 263.284 168.651 266.75 172.023C269.359 175.892 270.22 178.728 270.125 183.425C270.125 184.01 270.126 184.595 270.126 185.197C270.124 187.112 270.101 189.027 270.077 190.942C270.071 192.276 270.067 193.611 270.064 194.946C270.052 198.445 270.023 201.945 269.989 205.444C269.958 209.02 269.944 212.597 269.929 216.173C269.896 223.18 269.845 230.188 269.781 237.195C267.339 237.239 264.897 237.266 262.454 237.29C261.765 237.302 261.076 237.315 260.366 237.328C254.209 237.373 250.728 236.227 246.283 231.938C242.645 228.049 240.797 224.772 240.788 219.349C240.783 218.524 240.778 217.699 240.773 216.849C240.777 215.964 240.78 215.079 240.783 214.167C240.781 213.249 240.78 212.33 240.778 211.384C240.777 209.44 240.78 207.497 240.786 205.553C240.795 202.596 240.787 199.64 240.777 196.683C240.778 194.791 240.78 192.899 240.783 191.007C240.78 190.13 240.777 189.252 240.773 188.348C240.814 181.258 241.15 173.924 245.404 167.979C248.369 165.704 251.522 166.097 255.116 166.339Z" fill="#1B5087"/>
<path d="M160.831 14.2912C161.763 14.2869 162.695 14.2825 163.655 14.2781C164.677 14.2771 165.7 14.2763 166.722 14.2755C167.807 14.272 168.891 14.2682 169.976 14.2641C172.913 14.2542 175.85 14.2493 178.788 14.2459C180.623 14.2437 182.459 14.2406 184.295 14.2372C190.042 14.2269 195.789 14.2195 201.536 14.2166C208.165 14.2132 214.795 14.1999 221.425 14.1779C226.554 14.1616 231.683 14.1539 236.813 14.1529C239.875 14.1521 242.937 14.1476 245.999 14.1341C248.877 14.1216 251.755 14.12 254.633 14.1266C255.688 14.1272 256.744 14.1239 257.799 14.1164C259.241 14.1068 260.683 14.1126 262.125 14.1191C262.932 14.118 263.738 14.1169 264.569 14.1158C267.559 14.5022 269.669 15.6032 271.581 17.9499C272.297 20.5983 272.297 23.1926 271.297 25.7648C268.454 28.5294 266.639 29.1761 262.705 29.1861C261.736 29.1957 260.767 29.2054 259.769 29.2153C258.701 29.2106 257.633 29.2056 256.564 29.2003C255.435 29.2057 254.306 29.2123 253.177 29.2201C250.114 29.2372 247.052 29.2349 243.989 29.2282C241.432 29.2243 238.874 29.2299 236.317 29.2354C230.283 29.2483 224.25 29.2456 218.217 29.2329C211.994 29.2201 205.771 29.2321 199.547 29.2565C194.202 29.2768 188.857 29.2823 183.512 29.2759C180.321 29.2721 177.129 29.2738 173.938 29.2893C170.937 29.3032 167.937 29.2987 164.936 29.2801C163.835 29.2763 162.735 29.2789 161.634 29.2885C160.131 29.3006 158.627 29.287 157.124 29.2721C156.283 29.2717 155.442 29.2712 154.575 29.2708C151.572 28.6385 150.442 27.3577 148.532 25.007C147.679 22.402 147.679 22.402 147.774 19.7023C149.337 17.1447 149.337 17.1447 151.563 15.1554C154.663 14.4284 157.656 14.3001 160.831 14.2912Z" fill="#4E70B5"/>
<path d="M229.949 93.0328C230.324 93.3883 230.699 93.7438 231.085 94.11C231.483 94.485 231.881 94.86 232.291 95.2463C233.428 96.3284 234.555 97.4205 235.68 98.5148C236.184 98.9905 236.688 99.4662 237.207 99.9564C240.281 103.123 242.411 106.803 244.537 110.64C244.816 111.129 245.096 111.618 245.384 112.122C250.863 122.481 251.256 133.392 251.215 144.836C251.206 147.443 251.216 150.05 251.238 152.657C251.23 153.242 251.221 153.827 251.212 154.43C251.25 158.429 252.228 160.384 254.625 163.687C254.625 164.687 254.625 165.687 254.625 166.718C245.622 166.718 236.619 166.718 227.344 166.718C228.102 161.413 228.102 161.413 229.268 160.293C231.084 158.4 230.683 156.057 230.65 153.575C230.651 153.026 230.651 152.477 230.651 151.911C230.65 150.747 230.642 149.582 230.63 148.418C230.612 146.663 230.614 144.909 230.619 143.155C230.597 130.56 228.79 120.116 219.837 110.56C217.854 108.766 215.728 107.501 213.425 106.164C212.187 105.335 212.187 105.335 211.051 103.63C210.347 99.7611 210.05 96.2316 211.572 92.547C213.866 89.8567 215.926 88.8689 219.339 88.0001C223.843 87.8421 226.701 90.061 229.949 93.0328Z" fill="#FEDD41"/>
<path d="M205.624 195.107C211.098 198.274 214.961 203.053 216.734 209.156C217.823 216.114 217.47 222.585 213.59 228.625C210.712 232.214 207.408 235.44 203.093 237.195C202.093 237.195 201.093 237.195 200.062 237.195C200.097 237.807 200.132 238.42 200.169 239.051C200.391 245.643 200.391 245.643 198.831 248.704C196.586 250.417 195.314 250.893 192.484 250.836C190.402 249.494 189.05 248.515 187.937 246.289C187.716 243.815 187.726 241.335 187.7 238.853C187.678 238.168 187.656 237.484 187.634 236.779C187.603 233.574 187.649 231.639 189.257 228.809C191.068 227.258 192.002 226.806 194.331 226.491C197.968 225.846 200.419 224.879 202.904 222.039C204.841 218.94 205.026 215.748 204.609 212.187C203.556 210.052 203.556 210.052 202.335 208.398C202.335 207.898 202.335 207.398 202.335 206.882C196.108 204.325 196.108 204.325 189.524 205.1C186.837 206.432 185.784 207.424 184.29 210.103C183.642 212.149 183.132 214.081 182.68 216.166C181.875 219.007 181.875 219.007 180.548 220.523C178.263 221.539 176.773 221.642 174.296 221.281C172.266 219.7 171.376 218.773 170.836 216.231C170.845 209.066 172.669 203.93 177.564 198.641C185.502 191.277 196.011 190.573 205.624 195.107Z" fill="white"/>
<path d="M222.039 87.9063C222.039 88.1564 222.039 88.4065 222.039 88.6641C221.573 88.7647 221.107 88.8653 220.627 88.969C219.709 89.1698 219.709 89.1698 218.771 89.3746C218.165 89.5064 217.558 89.6383 216.933 89.7742C215.109 90.1789 215.109 90.1789 212.946 90.9375C210.779 94.5869 210.907 99.2184 211.818 103.273C211.94 103.704 212.062 104.134 212.188 104.578C211.648 104.368 211.107 104.158 210.551 103.942C209.462 103.53 209.462 103.53 208.351 103.11C207.639 102.837 206.927 102.565 206.193 102.284C197.055 99.4072 186.765 99.7744 178.086 103.82C176.764 104.638 175.453 105.474 174.155 106.331C171.007 108.322 168.912 108.9 165.239 108.184C162.235 107.071 159.839 105.216 158.383 102.305C157.889 98.9318 157.767 95.8147 158.383 92.4532C160.246 90.1269 162.532 89.1392 165.203 87.9063C165.872 87.5204 166.54 87.1346 167.228 86.737C183.594 77.582 206.267 77.0683 222.039 87.9063Z" fill="#FEC83B"/>
<path d="M250.078 138.68C250.328 138.68 250.578 138.68 250.836 138.68C250.847 139.574 250.847 139.574 250.857 140.486C250.898 143.2 250.962 145.913 251.025 148.626C251.036 149.564 251.047 150.502 251.058 151.468C251.196 156.59 251.362 159.707 254.625 163.688C254.625 164.688 254.625 165.688 254.625 166.719C245.622 166.719 236.619 166.719 227.344 166.719C228.11 161.354 228.11 161.354 230.375 159.141C230.759 157.017 230.759 157.017 230.763 154.609C230.803 153.286 230.803 153.286 230.844 151.937C230.861 151.016 230.878 150.096 230.896 149.147C230.922 148.217 230.948 147.288 230.974 146.33C231.037 144.033 231.089 141.735 231.133 139.438C231.633 140.188 232.133 140.938 232.648 141.711C234.795 144.443 236.396 145.742 239.8 146.258C243.057 146.431 245.148 146.008 247.805 143.984C248.828 142.236 249.42 140.616 250.078 138.68Z" fill="#FEC93C"/>
<path d="M294.268 14.2096C295.265 14.1901 296.263 14.1705 297.29 14.1504C300.201 14.4085 301.579 14.9329 303.883 16.6725C305.811 19.0389 305.461 21.3638 305.23 24.2506C304.295 26.6565 303.052 27.4789 300.852 28.7975C298.69 29.2236 296.607 29.2219 294.41 29.1764C293.845 29.1881 293.279 29.1998 292.696 29.2119C289.727 29.1909 288.279 28.9966 285.719 27.3529C283.734 25.3072 283.462 24.6086 283.138 21.7404C283.422 18.9459 283.422 18.9459 285.222 16.7672C288.282 14.2899 290.453 14.2387 294.268 14.2096Z" fill="#4E70B5"/>
<path d="M223.555 330.407C225.695 332.067 226.901 333.31 228.102 335.712C228.411 338.92 228.296 340.65 226.776 343.527C224.364 346.407 223.182 346.931 219.482 347.41C215.837 346.971 214.754 345.856 212.188 343.29C210.878 340.67 211.059 337.819 211.43 334.954C214.502 330.038 218.045 329.61 223.555 330.407Z" fill="white"/>
<path d="M193.811 330.121C196.92 330.134 197.569 330.23 200.11 332.252C200.595 332.893 201.079 333.534 201.579 334.194C201.829 334.444 202.079 334.694 202.336 334.952C202.603 338.956 202.728 341.587 200.063 344.804C197.877 346.565 196.459 347.05 193.669 347.456C190.066 346.95 188.944 345.87 186.422 343.288C185.485 340.475 185.136 337.87 185.665 334.952C187.512 332.726 187.512 332.726 189.454 331.163C190.698 329.919 192.1 330.187 193.811 330.121Z" fill="white"/>
<path d="M172.023 330.406C174.344 332.253 174.344 332.253 175.812 334.195C176.063 334.445 176.313 334.695 176.57 334.953C177.073 338.362 177.149 341.535 175.102 344.425C172.486 346.561 170.954 347.098 167.642 347.258C164.934 346.967 163.402 345.841 161.414 344.046C159.454 341.463 159.622 338.864 159.898 335.71C162.466 330.209 166.376 329.487 172.023 330.406Z" fill="#DEE8FB"/>
<path d="M248.563 330.407C250.893 331.697 252.66 333.296 253.868 335.712C253.97 339.421 253.635 341.886 251.263 344.805C248.199 347.196 246.412 347.47 242.5 347.079C240.245 345.735 238.387 344.157 237.196 341.774C236.775 338.264 236.713 335.725 238.617 332.68C241.594 329.878 244.617 329.798 248.563 330.407Z" fill="white"/>
<path d="M144.482 330.025C146.962 330.558 148.352 331.579 150.047 333.438C151.374 336.092 151.218 338.878 150.805 341.774C149.838 344.056 149.049 344.661 147.016 346.321C143.451 347.54 140.998 347.458 137.59 345.847C134.915 343.367 134.366 341.6 133.754 338.079C134.224 335.141 135.164 333.599 137.179 331.44C139.566 329.797 141.652 329.824 144.482 330.025Z" fill="white"/>
<path d="M241.032 157.2C241.775 157.191 242.518 157.183 243.283 157.174C246.672 157.209 248.741 157.269 251.671 159.073C254.105 161.753 254.625 163.044 254.625 166.72C245.622 166.72 236.619 166.72 227.344 166.72C228.102 161.415 228.102 161.415 229.898 159.216C233.256 156.772 237.041 157.102 241.032 157.2Z" fill="#FEE796"/>
<path d="M146.826 157.341C147.952 157.298 147.952 157.298 149.1 157.255C155.333 157.18 155.333 157.18 158.11 159.205C159.898 161.414 159.898 161.414 160.656 166.718C151.653 166.718 142.651 166.718 133.375 166.718C134.095 162.4 134.358 161.359 137.164 158.383C140.08 156.925 143.618 157.386 146.826 157.341Z" fill="#FED842"/>
<path d="M131.859 13.6407C134.182 14.8913 135.882 15.9566 137.448 18.0929C138.112 20.3513 138.251 21.8996 137.922 24.2501C136.538 26.4666 134.99 28.3683 132.617 29.5548C127.212 30.0864 127.212 30.0864 124.329 27.755C121.902 24.6663 121.612 22.899 122.008 18.9454C124.515 14.7358 126.984 13.1719 131.859 13.6407Z" fill="#85C966"/>
<path d="M109.883 13.6411C114.11 16.0342 114.11 16.0342 115.187 18.1879C115.608 21.6982 115.67 24.2366 113.766 27.2817C111.286 29.6164 109.533 29.8081 106.123 29.7771C103.72 29.432 102.441 28.2266 100.789 26.5239C99.4496 23.8456 99.4367 21.096 100.031 18.1879C102.486 14.6905 105.565 12.7224 109.883 13.6411Z" fill="#F9D941"/>
<path d="M87.9059 13.6398C90.5538 14.9035 91.5637 15.7162 93.2106 18.1867C93.7672 21.6427 93.6597 24.2636 91.8371 27.2804C89.6774 29.255 88.2473 29.5222 85.3483 29.7907C82.1516 29.5151 81.0486 28.759 78.8122 26.5226C77.4964 23.891 77.5982 21.0573 78.0544 18.1867C81.049 14.404 83.1304 13.2652 87.9059 13.6398Z" fill="#F68ECC"/>
<path d="M196.274 256.898C198.32 258.262 199.715 259.235 200.82 261.445C201.133 264.967 200.661 266.935 198.547 269.781C196.128 270.991 193.595 270.929 190.969 270.539C189.126 269.122 188.21 268.052 187.18 265.992C186.854 263.058 186.94 261.805 188.601 259.314C191.103 256.737 192.722 256.55 196.274 256.898Z" fill="#DEE9FA"/>
</g>
<defs>
<clipPath id="clip0_215_1567">
<rect width="388" height="388" fill="white"/>
</clipPath>
</defs>
</svg>
